<?xml version="1.0" standalone="no"?>
<!DOCTYPE svg PUBLIC "-//W3C//DTD SVG 20010904//EN"
 "http://www.w3.org/TR/2001/REC-SVG-20010904/DTD/svg10.dtd">
<svg version="1.0" xmlns="http://www.w3.org/2000/svg"
 width="512.000000pt" height="512.000000pt" viewBox="0 0 512.000000 512.000000"
 preserveAspectRatio="xMidYMid meet">

<g transform="translate(0.000000,512.000000) scale(0.100000,-0.100000)"
fill="#000000" stroke="none">
<path d="M373 4945 c-87 -19 -157 -59 -228 -130 -123 -123 -145 -200 -145
-525 l0 -225 155 -465 c85 -256 155 -472 155 -480 0 -8 -70 -207 -155 -441
l-155 -426 0 -1020 0 -1020 26 -27 27 -26 507 0 507 0 27 26 c24 25 26 33 26
120 l0 94 1440 0 1440 0 0 -94 c0 -87 2 -95 26 -120 l27 -26 507 0 507 0 27
26 26 27 0 1020 0 1020 -155 426 c-85 234 -155 433 -155 441 0 8 70 224 155
480 l155 465 0 225 c0 325 -22 402 -145 525 -72 72 -141 111 -232 130 -99 21
-4274 21 -4370 0z m4397 -176 c71 -34 126 -89 159 -158 25 -53 26 -65 29 -253
l4 -198 -1001 0 -1001 0 0 135 c0 131 -1 137 -25 160 l-24 25 -351 0 -351 0
-24 -25 c-24 -23 -25 -29 -25 -160 l0 -135 -1000 0 -1000 0 0 178 c0 198 9
247 60 324 36 54 91 95 163 119 50 18 153 18 2192 16 l2140 -2 55 -26z m-1970
-529 l0 -80 -240 0 -240 0 0 80 0 80 240 0 240 0 0 -80z m1996 -637 l-133
-398 -559 -3 -559 -3 -95 45 c-319 151 -661 151 -980 0 l-95 -45 -959 3 -959
3 -133 398 -132 397 2368 0 2368 0 -132 -397z m-1919 -478 c-3 -7 -29 -15 -57
-19 -29 -4 -89 -19 -133 -34 -45 -14 -86 -26 -90 -27 -4 0 -17 14 -28 31 l-19
32 62 25 c58 23 176 52 238 59 21 3 26 -2 28 -25 2 -16 1 -35 -1 -42z m293 48
c41 -8 103 -26 137 -40 66 -26 67 -28 31 -76 -12 -16 -16 -16 -68 4 -30 12
-93 29 -140 39 l-85 17 -3 40 c-3 46 -12 45 128 16z m-1034 -175 c-150 -175
-245 -368 -276 -565 -20 -126 -6 -113 -123 -113 l-102 0 -24 36 c-64 93 -230
209 -348 245 -24 7 -43 14 -43 17 0 3 32 38 70 78 89 91 91 112 23 185 -72 77
-78 79 -273 79 -195 0 -201 -2 -273 -79 -68 -73 -66 -94 23 -185 39 -40 70
-75 70 -78 0 -3 -19 -10 -42 -17 -119 -36 -285 -152 -349 -245 l-24 -36 -122
0 c-68 0 -123 3 -123 7 0 5 57 166 128 360 l127 353 859 0 859 0 -37 -42z
m2652 -298 c67 -184 125 -345 128 -357 6 -23 5 -23 -99 -23 l-106 0 6 50 c11
98 -41 195 -131 242 -54 29 -155 31 -206 4 -92 -48 -135 -119 -134 -223 l0
-73 -83 0 c-94 0 -83 -12 -103 113 -31 197 -126 390 -276 565 l-37 42 459 -2
459 -3 123 -335z m-2352 289 l16 -31 -39 -31 c-48 -40 -100 -92 -140 -140
l-31 -39 -31 16 c-17 9 -31 20 -31 25 0 32 198 231 231 231 5 0 16 -14 25 -31z
m1131 -8 c72 -58 173 -170 173 -192 0 -5 -14 -16 -31 -25 l-31 -16 -31 39
c-40 48 -92 100 -140 140 l-39 31 16 31 c9 17 20 31 25 31 5 0 31 -17 58 -39z
m-469 -37 c204 -42 376 -164 481 -342 43 -72 91 -206 91 -253 l0 -29 -710 0
-710 0 0 30 c0 49 45 176 89 250 159 267 464 405 759 344z m-1996 -206 l-62
-63 -62 63 -63 62 125 0 125 0 -63 -62z m1051 -140 c-1 -7 -10 -38 -21 -68
-11 -30 -26 -84 -32 -120 -7 -36 -14 -71 -16 -77 -2 -8 -20 -13 -44 -13 -37 0
-40 2 -36 23 31 148 42 191 63 245 l25 62 32 -20 c17 -11 30 -25 29 -32z
m1737 -132 c35 -155 35 -146 -11 -146 -23 0 -41 5 -43 13 -2 6 -9 41 -16 77
-10 56 -30 123 -54 181 -5 12 2 22 26 36 l33 20 23 -50 c13 -28 32 -87 42
-131z m-2735 -1 c84 -18 176 -61 230 -109 l40 -35 -385 0 -385 0 37 33 c54 47
127 84 210 106 89 23 160 24 253 5z m3358 3 c52 -27 62 -83 22 -123 -60 -61
-158 6 -125 85 18 43 63 60 103 38z m-2353 -603 l0 -296 25 -24 24 -25 351 0
351 0 24 25 25 24 0 296 0 295 683 0 683 0 -1 -72 c0 -61 4 -81 27 -120 l27
-48 -27 -47 c-38 -68 -38 -158 0 -225 l27 -48 -27 -47 c-38 -68 -38 -158 0
-225 l27 -48 -27 -47 c-35 -63 -37 -157 -4 -219 22 -44 96 -114 119 -114 9 0
13 -16 13 -56 0 -82 28 -123 83 -124 17 0 38 10 52 25 21 20 25 34 25 84 0 56
2 62 28 75 46 24 100 87 117 135 23 68 19 120 -15 187 -25 51 -27 60 -15 74
22 25 45 98 45 145 0 27 -11 63 -30 101 -25 51 -27 60 -15 74 22 25 45 98 45
145 0 27 -11 63 -29 100 -29 58 -29 59 -12 84 30 43 44 100 38 157 l-6 54 85
0 84 0 0 -800 0 -800 -2400 0 -2400 0 0 800 0 800 1000 0 1000 0 0 -295z m320
170 c0 -162 15 -195 86 -195 14 0 36 11 49 25 24 23 25 29 25 160 l0 135 80 0
80 0 0 -240 0 -240 -240 0 -240 0 0 240 0 240 80 0 80 0 0 -125z m2113 113
c52 -27 62 -83 22 -123 -60 -61 -158 6 -125 85 18 43 63 60 103 38z m0 -320
c52 -27 62 -83 22 -123 -60 -61 -158 6 -125 85 18 43 63 60 103 38z m0 -320
c52 -27 62 -83 22 -123 -60 -61 -158 6 -125 85 18 43 63 60 103 38z m0 -320
c52 -27 62 -83 22 -123 -39 -40 -96 -32 -120 16 -21 40 -19 57 14 90 32 31 50
35 84 17z m-3633 -828 l0 -40 -400 0 -400 0 0 40 0 40 400 0 400 0 0 -40z
m4000 0 l0 -40 -400 0 -400 0 0 40 0 40 400 0 400 0 0 -40z"/>
</g>
</svg>
