<?xml version="1.0" standalone="no"?>
<!DOCTYPE svg PUBLIC "-//W3C//DTD SVG 20010904//EN"
 "http://www.w3.org/TR/2001/REC-SVG-20010904/DTD/svg10.dtd">
<svg version="1.0" xmlns="http://www.w3.org/2000/svg"
 width="512.000000pt" height="512.000000pt" viewBox="0 0 512.000000 512.000000"
 preserveAspectRatio="xMidYMid meet">

<g transform="translate(0.000000,512.000000) scale(0.100000,-0.100000)"
fill="#000000" stroke="none">
<path d="M3377 5110 c-115 -29 -135 -46 -524 -434 -250 -249 -374 -380 -379
-399 -8 -35 12 -84 42 -104 13 -8 40 -15 60 -15 34 0 55 19 398 360 198 198
377 368 396 378 48 25 162 25 210 0 53 -28 1264 -1242 1289 -1293 25 -51 28
-137 6 -191 -11 -26 -314 -335 -1033 -1055 -927 -927 -1021 -1018 -1066 -1033
-55 -19 -127 -14 -174 10 -16 8 -55 39 -86 67 l-57 52 251 253 c221 223 254
260 283 321 30 63 32 75 32 173 0 92 -3 112 -26 160 -76 161 -253 258 -422
230 -122 -19 -153 -42 -402 -291 l-231 -229 -50 0 -50 0 -256 258 c-163 164
-264 273 -278 301 -30 60 -30 142 0 202 15 29 140 162 373 396 328 329 351
355 351 388 0 70 -70 121 -132 96 -16 -7 -189 -173 -385 -369 -327 -328 -358
-363 -389 -427 -31 -67 -33 -76 -33 -185 0 -109 2 -118 33 -185 29 -61 59 -96
257 -295 l224 -225 -47 -19 c-76 -30 -190 -105 -259 -169 -163 -153 -256 -357
-270 -592 l-5 -100 -499 -500 -499 -500 0 -43 c0 -71 66 -118 128 -93 15 6
261 245 547 531 l519 519 7 134 c4 76 14 160 24 193 61 211 233 391 435 455
42 14 111 24 196 29 72 4 139 12 150 18 10 6 120 113 244 237 219 221 261 255
327 269 68 15 162 -32 200 -99 25 -44 31 -124 12 -172 -6 -15 -170 -188 -365
-384 l-354 -355 0 -46 c0 -39 5 -50 31 -72 46 -39 94 -35 147 10 l42 36 69
-64 c120 -111 245 -153 383 -130 131 23 167 49 446 326 173 171 250 241 242
221 -6 -16 -68 -183 -137 -370 -71 -195 -142 -369 -165 -408 -72 -124 -207
-239 -336 -287 -31 -12 -246 -75 -477 -140 l-420 -119 -92 -93 c-50 -52 -95
-106 -98 -121 -19 -75 46 -141 121 -123 14 4 62 42 107 85 l82 78 380 107
c209 59 411 118 448 131 191 66 380 230 476 414 22 42 134 332 249 645 l210
569 605 606 c710 712 672 663 672 861 0 198 40 147 -689 878 -341 343 -641
638 -666 657 -70 51 -143 77 -235 81 -44 2 -97 -1 -118 -6z"/>
<path d="M3424 4390 c-104 -22 -203 -99 -251 -198 -25 -50 -28 -68 -28 -152 0
-114 18 -163 91 -240 66 -71 136 -103 238 -108 65 -3 92 0 138 17 246 93 314
397 129 582 -83 82 -209 122 -317 99z m151 -218 c68 -39 93 -150 47 -211 -92
-125 -282 -73 -282 77 0 125 124 196 235 134z"/>
<path d="M2213 4025 c-92 -40 -62 -185 38 -185 56 0 99 40 99 91 0 49 -22 84
-62 98 -38 13 -36 13 -75 -4z"/>
<path d="M4325 3601 c-16 -10 -267 -257 -557 -548 l-528 -528 0 -43 c0 -66 60
-114 123 -98 12 3 266 250 565 548 525 527 542 545 542 581 0 49 -13 73 -50
92 -38 20 -59 19 -95 -4z"/>
<path d="M2013 3058 c-107 -106 -196 -203 -199 -215 -16 -63 32 -123 98 -123
42 0 45 3 235 193 191 190 193 193 193 236 0 58 -41 101 -96 101 -36 0 -49
-11 -231 -192z"/>
</g>
</svg>
