<?xml version="1.0" standalone="no"?>
<!DOCTYPE svg PUBLIC "-//W3C//DTD SVG 20010904//EN"
 "http://www.w3.org/TR/2001/REC-SVG-20010904/DTD/svg10.dtd">
<svg version="1.0" xmlns="http://www.w3.org/2000/svg"
 width="512.000000pt" height="512.000000pt" viewBox="0 0 512.000000 512.000000"
 preserveAspectRatio="xMidYMid meet">

<g transform="translate(0.000000,512.000000) scale(0.100000,-0.100000)"
fill="#000000" stroke="none">
<path d="M2395 4910 c-481 -35 -943 -218 -1320 -523 -109 -88 -305 -292 -391
-407 -235 -313 -387 -679 -450 -1080 -25 -159 -25 -500 -1 -660 32 -206 124
-528 164 -572 30 -34 96 -17 113 27 7 19 1 47 -26 122 -86 237 -127 478 -127
743 0 213 17 354 67 554 221 873 963 1527 1866 1641 263 34 617 8 860 -61 366
-106 710 -304 945 -544 l70 -72 -50 6 c-375 44 -435 48 -460 32 -34 -23 -36
-89 -2 -110 14 -10 139 -27 365 -52 l344 -37 23 24 c21 22 26 49 60 368 28
258 34 350 26 367 -18 40 -99 45 -120 6 -5 -9 -21 -131 -37 -269 l-28 -253
-100 98 c-472 458 -1136 699 -1791 652z"/>
<path d="M1955 3677 c-319 -155 -613 -297 -653 -315 -40 -19 -79 -44 -88 -57
-12 -19 -14 -119 -12 -733 3 -697 3 -712 23 -731 25 -24 1310 -641 1335 -641
31 0 1313 619 1338 646 l22 25 0 712 c-1 567 -3 715 -14 729 -17 23 -1320 648
-1348 647 -13 0 -284 -128 -603 -282z m854 18 c126 -60 226 -113 223 -116 -4
-4 -256 -126 -560 -272 l-553 -266 -240 117 -241 117 439 210 c241 116 490
236 553 267 63 31 123 56 132 55 9 -1 120 -51 247 -112z m637 -307 c128 -62
230 -115 226 -119 -11 -10 -1096 -531 -1107 -532 -5 0 -117 51 -248 114 l-238
113 158 76 c87 41 336 161 553 267 217 105 401 192 408 192 8 1 119 -50 248
-111z m-1503 -518 l547 -263 0 -613 0 -613 -42 18 c-24 11 -281 134 -573 275
l-530 256 -3 615 -2 616 27 -14 c16 -8 274 -132 576 -277z m1837 -323 l0 -614
-567 -273 c-313 -150 -571 -275 -575 -277 -5 -2 -8 272 -8 610 l0 614 573 276
c314 152 573 276 575 276 1 1 2 -275 2 -612z"/>
<path d="M1665 2585 c-31 -30 -32 -65 -2 -92 34 -31 396 -203 428 -203 18 0
35 9 48 26 26 33 26 55 4 82 -19 22 -411 212 -438 212 -9 0 -27 -11 -40 -25z"/>
<path d="M4622 3494 c-32 -22 -28 -55 22 -201 86 -253 118 -446 119 -713 0
-289 -48 -550 -148 -806 -302 -769 -994 -1300 -1819 -1395 -130 -15 -473 -6
-591 15 -463 84 -832 269 -1180 591 -84 78 -100 74 200 41 147 -17 216 -21
231 -14 44 21 51 83 11 116 -13 11 -608 82 -686 82 -60 0 -64 -16 -104 -389
-28 -257 -35 -346 -27 -362 24 -43 96 -44 119 -1 6 10 22 130 37 265 l27 246
91 -86 c363 -343 778 -551 1267 -634 179 -30 532 -33 709 -5 506 79 957 304
1304 650 131 131 213 231 312 381 407 618 500 1411 247 2105 -46 125 -83 155
-141 114z"/>
</g>
</svg>
